<svg xmlns="http://www.w3.org/2000/svg" viewBox="0 0 64 64" fill="none">
  <defs>
    <linearGradient id="bg" x1="8" y1="4" x2="56" y2="60" gradientUnits="userSpaceOnUse">
      <stop stop-color="#0F172A"/>
      <stop offset="0.58" stop-color="#1E293B"/>
      <stop offset="1" stop-color="#4338CA"/>
    </linearGradient>
    <linearGradient id="accent" x1="20" y1="18" x2="28" y2="46" gradientUnits="userSpaceOnUse">
      <stop stop-color="#22D3EE"/>
      <stop offset="1" stop-color="#818CF8"/>
    </linearGradient>
    <linearGradient id="sheen" x1="12" y1="8" x2="44" y2="28" gradientUnits="userSpaceOnUse">
      <stop stop-color="#FFFFFF" stop-opacity="0.34"/>
      <stop offset="1" stop-color="#FFFFFF" stop-opacity="0"/>
    </linearGradient>
  </defs>
  <rect x="2" y="2" width="60" height="60" rx="18" fill="url(#bg)"/>
  <rect x="2.75" y="2.75" width="58.5" height="58.5" rx="17.25" stroke="#FFFFFF" stroke-opacity="0.08" stroke-width="1.5"/>
  <path d="M8 13C8 9.134 11.134 6 15 6H49C52.866 6 56 9.134 56 13V22C49.708 19.902 41.928 18.75 32.5 18.75C22.69 18.75 14.492 20 8 22.25V13Z" fill="url(#sheen)"/>
  <path d="M19 16C19 13.791 20.791 12 23 12H38.5L47 20.5V48C47 50.209 45.209 52 43 52H23C20.791 52 19 50.209 19 48V16Z" fill="#F8FAFC"/>
  <path d="M38.5 12V20C38.5 22.209 40.291 24 42.5 24H47L38.5 12Z" fill="#DDE6FF"/>
  <rect x="22" y="18" width="6" height="27" rx="3" fill="url(#accent)"/>
  <rect x="31" y="21" width="9" height="3" rx="1.5" fill="#1E293B" fill-opacity="0.94"/>
  <rect x="31" y="29" width="11" height="3" rx="1.5" fill="#475569" fill-opacity="0.9"/>
  <rect x="31" y="37" width="9" height="3" rx="1.5" fill="#64748B" fill-opacity="0.88"/>
  <path d="M22 48C27 43.7 39 43.7 44 48" stroke="#C7D2FE" stroke-width="2.5" stroke-linecap="round"/>
</svg>
