<svg xmlns="http://www.w3.org/2000/svg" width="512" height="512" viewBox="0 0 512 512">
  <defs>
    <linearGradient id="bg" x1="0" y1="0" x2="1" y2="1">
      <stop offset="0%" stop-color="#2d5be3"/>
      <stop offset="100%" stop-color="#7c3aed"/>
    </linearGradient>
    <linearGradient id="page" x1="0" y1="0" x2="0" y2="1">
      <stop offset="0%" stop-color="#ffffff"/>
      <stop offset="100%" stop-color="#f0f0f5"/>
    </linearGradient>
  </defs>
  <rect width="512" height="512" rx="108" fill="url(#bg)"/>
  <!-- Document shape -->
  <rect x="140" y="80" width="232" height="310" rx="12" fill="url(#page)" opacity="0.95"/>
  <!-- Folded corner -->
  <path d="M320 80 L372 132 L320 132 Z" fill="#dde0e8"/>
  <!-- Text lines -->
  <rect x="176" y="160" width="160" height="8" rx="4" fill="#c0c4d0"/>
  <rect x="176" y="184" width="120" height="8" rx="4" fill="#d0d4e0"/>
  <rect x="176" y="208" width="140" height="8" rx="4" fill="#c0c4d0"/>
  <rect x="176" y="232" width="100" height="8" rx="4" fill="#d0d4e0"/>
  <rect x="176" y="256" width="155" height="8" rx="4" fill="#c0c4d0"/>
  <rect x="176" y="280" width="80" height="8" rx="4" fill="#d0d4e0"/>
  <!-- Highlight accent -->
  <rect x="176" y="206" width="140" height="12" rx="2" fill="#FFD54F" opacity="0.5"/>
  <!-- Bottom brand text -->
  <text x="256" y="448" text-anchor="middle" font-family="system-ui, sans-serif" font-weight="800" font-size="56" fill="white" letter-spacing="-2">PDF Pro</text>
</svg>
